<svg width="239" height="63" viewBox="0 0 239 63" fill="none" xmlns="http://www.w3.org/2000/svg">
<g clip-path="url(#clip0_1418_2288)">
<path d="M6.0035 43.2899C6.0035 43.2899 6.0937 43.6219 6.2743 44.2309C6.4639 44.8399 6.7618 45.7179 7.2493 46.8019C8.2062 48.9429 10.0027 51.8999 13.1443 54.4439C16.2408 56.9969 20.7004 58.9679 25.7017 59.4699C28.2294 59.7389 30.7932 59.6579 33.4112 59.2549C35.9931 58.8609 38.6291 58.0989 41.0671 57.1049C43.5311 56.0929 45.8781 54.8109 48.0091 53.3329C50.1841 51.8279 52.0711 50.1979 53.7771 48.4149C55.4841 46.6229 56.8741 44.8129 58.0841 42.9049C59.2571 41.0409 60.1691 39.1779 60.8461 37.4129C61.5141 35.6749 61.9831 33.9369 62.2361 32.5119C62.5071 31.0339 62.6151 29.7439 62.6431 28.6869C62.6881 26.5729 62.4891 25.3988 62.4891 25.3988L69.9551 24.8164C69.9551 24.8164 70.0991 26.4109 69.8471 29.1529C69.7111 30.5139 69.4581 32.1629 68.9801 33.9819C68.4921 35.8539 67.8151 37.7799 66.8401 39.8859C65.8741 41.9639 64.6201 44.0959 63.0851 46.1929C61.5771 48.2529 59.7091 50.3499 57.6501 52.2219C55.5921 54.1039 53.1911 55.8859 50.6991 57.3559C48.1621 58.8609 45.4361 60.1149 42.5921 61.0559C39.7211 61.9969 36.8237 62.6149 33.8807 62.8659C30.9648 63.1159 27.9947 62.9999 25.2684 62.5159C19.7344 61.5669 14.9498 59.0309 11.754 55.9939C8.5222 52.9659 6.834 49.6509 5.9764 47.3129C5.5431 46.1389 5.2903 45.1799 5.1368 44.5349C5.0014 43.8899 4.9292 43.5409 4.9292 43.5409L6.0035 43.2899Z" fill="url(#paint0_linear_1418_2288)"/>
<path d="M56.0067 29.9587C56.0067 29.9587 56.1426 28.9737 56.0426 27.3337C55.9436 25.6943 55.5286 23.3022 54.1286 20.8922C53.3976 19.6738 52.5406 18.5539 51.2676 17.4967C50.0846 16.4844 48.6227 15.6153 47.0247 14.9613C45.4267 14.3073 43.6656 13.8863 41.8516 13.6981C40.9486 13.6175 40.0277 13.5637 39.1077 13.5906C38.6557 13.5906 38.2137 13.6354 37.6897 13.6623C37.2297 13.716 36.8142 13.7429 36.3538 13.8235C32.6977 14.3342 29.2219 15.7677 26.4324 17.6491C25.0151 18.6077 23.8325 19.62 22.7943 20.7489C21.7922 21.8329 20.9527 22.9976 20.3027 24.0996C19.0027 26.3217 18.407 28.3637 18.1542 29.7797C17.9014 31.2037 17.9014 32.0197 17.9014 32.0197L11.3022 31.4007C11.3022 31.4007 11.4195 30.2547 11.9521 28.3287C12.4848 26.4197 13.541 23.7502 15.5 21.0356C16.475 19.6738 17.6486 18.321 19.0839 17.0398C20.4742 15.7856 22.1443 14.5851 23.9137 13.6264C27.4796 11.6644 31.7045 10.3653 35.9926 10.1503C36.5162 10.1145 37.1027 10.1145 37.6357 10.1055C38.1047 10.1235 38.6556 10.1235 39.1976 10.1682C40.2626 10.222 41.3186 10.3833 42.3476 10.5714C44.4156 10.9746 46.4016 11.6465 48.1796 12.5603C49.9586 13.4831 51.5296 14.6119 52.8196 15.9379C54.0746 17.1742 55.0766 18.7152 55.7266 20.0949C57.0536 22.9528 57.2437 25.5688 57.1897 27.3247C57.1627 28.2027 57.0817 28.9107 57.0087 29.3767C56.9367 29.8337 56.9007 30.0757 56.9007 30.0757L56.0067 29.9587Z" fill="url(#paint1_linear_1418_2288)"/>
<path d="M63.7619 19.9787C63.7619 19.9787 63.6539 19.6651 63.4549 19.0648C63.2469 18.4825 62.9129 17.6224 62.3809 16.5921C61.3429 14.5405 59.4559 11.7005 56.3679 9.20092C53.3079 6.71032 49.0289 4.59602 44.1629 3.92412C41.6979 3.56572 39.2159 3.54782 36.661 3.88822C34.1242 4.22872 31.6145 4.90952 29.2222 5.90402C24.4286 7.86602 20.2037 11.0196 16.9718 14.5226C13.7219 18.0345 11.4108 21.8959 10.0476 25.3182C9.69549 26.1871 9.42469 26.9851 9.16289 27.8361C8.92819 28.6061 8.73859 29.3681 8.58509 30.0841C8.27819 31.5181 8.13379 32.7631 8.07959 33.7841C7.97129 35.8271 8.13379 36.9561 8.13379 36.9561L0.00888849 37.3141C0.00888849 37.3141 -0.0813092 35.7111 0.297791 33.0051C0.487391 31.6611 0.81239 30.0401 1.34499 28.2571C1.61579 27.3701 1.93179 26.4381 2.32899 25.4526C2.69009 24.5478 3.14149 23.5175 3.63799 22.523C5.64209 18.4825 8.70249 14.227 12.783 10.4642C16.8454 6.71032 21.9731 3.50302 27.6244 1.68432C30.441 0.770517 33.393 0.197121 36.2999 0.0448214C39.1889 -0.116479 42.1409 0.134421 44.7949 0.743621C50.2119 1.93512 54.7339 4.64972 57.8399 7.61522C60.9719 10.6075 62.7149 13.77 63.6539 16.0367C64.1229 17.1745 64.3939 18.0973 64.5739 18.7334C64.7279 19.3694 64.8179 19.7009 64.8179 19.7009L63.7619 19.9787Z" fill="url(#paint2_linear_1418_2288)"/>
<path d="M45.1647 36.6432C45.1647 36.6432 45.4087 36.1142 45.8237 35.1912C45.9317 34.9582 46.0497 34.7072 46.1667 34.4302C46.2567 34.1612 46.3567 33.8652 46.4647 33.5612C46.6637 32.9072 46.8347 32.1632 46.9437 31.3482C47.1597 29.7172 47.0607 27.7642 46.2747 25.9725C45.5167 24.1897 44.0007 22.6666 42.1407 21.9141C40.2807 21.1346 38.1687 21.063 36.3267 21.4661C34.431 21.8693 32.8782 22.6935 31.6414 23.5894C30.4317 24.4764 29.5922 25.4171 29.0595 26.0982C28.5269 26.7882 28.2741 27.2092 28.2741 27.2092L24.3652 24.4495C24.3652 24.4495 24.7714 23.9119 25.5839 23.0788C26.4054 22.2456 27.6422 21.1346 29.3845 20.1312C31.0817 19.1547 33.3476 18.2767 35.8031 18.0438C38.2767 17.7929 41.0297 18.1782 43.3777 19.4862C45.7427 20.7673 47.4757 23.0071 48.1617 25.3006C48.8747 27.6122 48.7037 29.8432 48.2797 31.5902C48.0627 32.4772 47.7917 33.2562 47.5027 33.9282C47.3317 34.3042 47.2407 34.5192 47.0517 34.8782C46.8977 35.1372 46.7537 35.3792 46.6187 35.6032C46.1037 36.4722 45.8057 36.9742 45.8057 36.9742L45.1647 36.6432Z" fill="url(#paint3_linear_1418_2288)"/>
<path d="M15.1934 36.1324C15.1934 36.1324 15.2024 36.3654 15.2114 36.8044C15.2295 37.2254 15.2656 37.8344 15.392 38.6134C15.6267 40.1544 16.2135 42.3764 17.703 44.5714C18.4162 45.6374 19.4544 46.7754 20.6009 47.6624C21.7835 48.5944 23.1918 49.3734 24.7446 49.9294C26.2973 50.4754 27.9855 50.8164 29.7188 50.9054C31.425 51.0134 33.2395 50.8434 34.9458 50.5024C38.4029 49.7944 41.6529 48.2624 44.2799 46.3364C44.9479 45.8614 45.5619 45.3514 46.1579 44.8404L47.0429 44.0344L47.8009 43.2634C48.8119 42.1884 49.6699 41.0954 50.3649 40.0294C51.7549 37.9064 52.5319 35.9714 52.9289 34.6004C53.3349 33.2294 53.4339 32.4414 53.4339 32.4414L59.0219 33.5874C59.0219 33.5874 58.7969 34.6274 58.1379 36.3474C57.4879 38.0584 56.3139 40.4054 54.4179 42.8424C53.4699 44.0614 52.3509 45.2884 51.0509 46.4624C50.7079 46.7574 50.3649 47.0624 50.0129 47.3574C49.6699 47.6264 49.3269 47.8954 48.9749 48.1734C48.2339 48.7194 47.4669 49.2574 46.6549 49.7504C43.4229 51.7474 39.5409 53.2174 35.5055 53.7364C33.4743 53.9784 31.4611 54.0144 29.457 53.7454C27.4709 53.4944 25.548 52.9574 23.8147 52.1774C22.0814 51.3984 20.5287 50.3774 19.2648 49.2034C17.9468 48.0034 17.0079 46.7664 16.2586 45.4584C14.7781 42.8694 14.3538 40.4144 14.2364 38.7574C14.1733 37.9244 14.1823 37.2524 14.2003 36.8044C14.2274 36.3654 14.2364 36.1414 14.2364 36.1414L15.1934 36.1324Z" fill="url(#paint4_linear_1418_2288)"/>
<path d="M32.9867 28.3909C32.9867 28.3909 32.2464 28.9649 31.5784 30.1109C30.9103 31.2129 30.5492 33.0589 31.3888 34.2149C31.7499 34.7249 32.3367 35.1099 32.9415 35.2449C33.086 35.2809 33.2665 35.3079 33.3839 35.3159C33.6547 35.3519 33.6728 35.3339 33.8533 35.3339C34.1512 35.3249 34.4311 35.2809 34.6929 35.2179C35.7311 34.9579 36.3088 34.4829 36.3088 34.4829L38.0238 37.6819C38.0238 37.6819 37.7438 37.8159 37.2388 37.9859C36.7331 38.1569 35.9929 38.3629 35.063 38.4069C34.6026 38.4249 34.0971 38.4159 33.5644 38.3269C33.3297 38.2909 32.9325 38.2009 32.779 38.1479C32.4721 38.0579 32.2284 37.9679 31.9395 37.8339C30.8562 37.3409 29.8451 36.4269 29.3305 35.2179C28.834 34.0799 28.8611 32.7899 29.1499 31.7869C29.4388 30.7559 29.9534 29.9409 30.4589 29.3319C30.9645 28.7139 31.47 28.3019 31.8311 28.0239C32.2013 27.7459 32.4179 27.6299 32.4179 27.6299L32.9867 28.3909Z" fill="url(#paint5_linear_1418_2288)"/>
<path d="M38.2857 34.9217C38.2857 34.9217 39.0167 34.3487 39.6037 33.2107C39.8927 32.6467 40.1187 31.9387 40.1277 31.2217C40.1547 30.4967 39.9467 29.7707 39.5407 29.2237C39.1437 28.6777 38.5657 28.3287 37.9697 28.1757C37.6897 28.1047 37.3467 28.0597 37.0847 28.0597C36.7962 28.0597 36.5254 28.0957 36.2726 28.1397C35.2615 28.3547 34.7018 28.7847 34.7018 28.7847L33.0859 25.4255C33.0859 25.4255 33.3657 25.309 33.8803 25.1747C34.3949 25.0403 35.1442 24.888 36.065 24.8969C36.5254 24.9059 37.0217 24.9507 37.5367 25.0671C38.0777 25.1926 38.5657 25.3538 39.1077 25.6316C40.1457 26.1507 41.0847 27.0737 41.5627 28.1757C42.0507 29.2687 42.0867 30.4697 41.8427 31.4547C41.6077 32.4587 41.1297 33.2647 40.6507 33.8647C40.1727 34.4647 39.6757 34.8777 39.3237 35.1367C38.9627 35.3967 38.7557 35.5137 38.7557 35.5137L38.2857 34.9217Z" fill="url(#paint6_linear_1418_2288)"/>
<path d="M23.8149 28.2031C23.8149 28.2031 22.3885 30.3891 21.9462 32.4051C21.5038 34.4211 20.9261 38.3001 24.0225 41.9021C24.0225 41.9021 26.9836 45.7181 33.0862 45.7541C33.0862 45.7541 37.2481 45.9961 41.8161 43.4871C41.8161 43.4871 44.9121 41.7491 46.4831 39.9221L42.4571 36.5441C42.4571 36.5441 40.7051 39.0791 37.4651 40.6741C37.4651 40.6741 32.8064 43.2721 28.2745 41.3821C28.2745 41.3821 24.1309 40.0921 23.3906 34.7341C23.3906 34.7341 23.1198 30.9181 24.5732 28.5441L23.8149 28.2031Z" fill="url(#paint7_linear_1418_2288)"/>
<path d="M234.247 20.0941C235.487 20.3277 236.421 20.6961 237.086 21.1902L237.095 21.1992L237.113 21.2082C237.769 21.6484 238.236 22.2773 238.506 23.1039L238.515 23.1129V23.1309C238.829 23.9664 239 25.0895 239 26.5271C239 27.6681 238.802 28.5931 238.443 29.3481V29.3571C238.128 30.0491 237.58 30.6421 236.745 31.1361C235.891 31.6301 234.714 32.0341 233.169 32.3041C231.597 32.5281 229.638 32.6631 227.275 32.6631H226.377V35.8711L227.185 35.9521C227.626 36.0051 228.057 36.0411 228.506 36.0681C228.955 36.0951 229.405 36.1041 229.845 36.1041C232.271 36.1041 234.723 35.7541 237.176 35.0711L237.886 39.5271C235.02 40.2281 232.199 40.5791 229.423 40.5791C225.55 40.5791 222.945 39.6801 221.408 38.0811C219.854 36.4371 218.983 33.8491 218.983 30.1481C218.983 26.4371 219.845 23.8676 221.408 22.2594V22.2504C222.972 20.6242 225.568 19.7168 229.423 19.7168C231.381 19.7168 232.98 19.8515 234.247 20.0941ZM232.873 26.7871V24.1461H230.231C229.162 24.1461 228.237 24.2539 227.581 24.5504H227.572C226.637 24.9817 226.377 25.961 226.377 26.8591V29.5101H229.018C230.069 29.5101 231.004 29.4111 231.642 29.1051C232.585 28.6741 232.873 27.7221 232.873 26.7871Z" fill="#121122"/>
<path d="M216.826 19.9053L217.213 26.0868C217.069 26.1138 216.925 26.1408 216.773 26.1678C216.278 26.2748 215.766 26.3918 215.245 26.5448H215.236H215.227C214.706 26.7068 214.221 26.9038 213.763 27.1468C213.278 27.3718 212.864 27.6678 212.55 28.0448L212.343 28.2968V39.9498H205.587V20.3456H208.588L211.292 23.0858L211.93 22.5018C213.269 21.262 214.904 20.3905 216.826 19.9053Z" fill="#121122"/>
<path d="M201.301 20.3457V39.9319H198.291L195.353 37.0839L194.734 37.8299C193.233 39.6259 191.068 40.5699 188.121 40.5699C185.677 40.5699 184.096 40.0489 183.171 39.2039C182.272 38.3509 181.715 36.8409 181.715 34.4059V20.3457H188.471V36.1309H190.691C191.742 36.1309 192.676 36.0329 193.314 35.7269C194.257 35.2959 194.545 34.3439 194.545 33.4089V20.3457H201.301Z" fill="#121122"/>
<path d="M192.311 40.7051C192.311 40.7171 192.298 40.7171 192.311 40.7051C192.298 40.7171 192.298 40.7051 192.311 40.7051Z" fill="#121122"/>
<path d="M177.978 35.808C178.139 35.826 178.301 35.844 178.472 35.862L178.184 40.399C176.63 40.381 175.327 40.327 174.276 40.237C173.018 40.139 172.183 39.986 171.707 39.815C170.79 39.483 170.17 39.096 169.775 38.692C169.46 38.351 169.236 37.767 169.236 36.805V24.0745H167.098V20.3459H169.236V16.7252L175.992 15.0361V20.3459H178.948V24.0745H175.992V35.44L176.711 35.584C177.079 35.655 177.475 35.727 177.924 35.808H177.951H177.978Z" fill="#121122"/>
<path d="M164.339 26.1678C163.845 26.2748 163.333 26.3918 162.803 26.5448H162.794C162.273 26.7068 161.788 26.9038 161.329 27.1468C160.853 27.3718 160.431 27.6678 160.116 28.0448L159.91 28.2968V39.9498H153.154V20.3456H156.154L158.859 23.0858L159.497 22.5018C160.835 21.262 162.47 20.3905 164.393 19.9053L164.779 26.0868C164.636 26.1138 164.492 26.1408 164.339 26.1678Z" fill="#121122"/>
<path d="M145.193 20.0941C146.442 20.3277 147.377 20.6961 148.042 21.1902L148.051 21.1992L148.069 21.2082C148.724 21.6484 149.192 22.2773 149.461 23.1039L149.47 23.1129V23.1309C149.785 23.9664 149.955 25.0895 149.955 26.5271C149.955 27.6681 149.758 28.5931 149.398 29.3481V29.3571C149.084 30.0491 148.536 30.6421 147.7 31.1361C146.838 31.6301 145.661 32.0341 144.124 32.3041C142.552 32.5281 140.602 32.6631 138.231 32.6631H137.332V35.8711L138.141 35.9521C138.581 36.0051 139.012 36.0411 139.461 36.0681C139.911 36.0951 140.36 36.1041 140.8 36.1041C143.235 36.1041 145.679 35.7541 148.131 35.0711L148.841 39.5271C145.975 40.2281 143.154 40.5791 140.378 40.5791C136.506 40.5791 133.9 39.6801 132.364 38.0811C130.809 36.4371 129.938 33.8491 129.938 30.1481C129.938 26.4371 130.8 23.8676 132.364 22.2594V22.2504C133.927 20.6242 136.524 19.7168 140.378 19.7168C142.336 19.7168 143.936 19.8515 145.193 20.0941ZM143.828 26.7871V24.1461H141.186C140.117 24.1461 139.192 24.2539 138.536 24.5504L138.518 24.5594C137.611 24.9817 137.332 25.952 137.332 26.8591V29.5101H139.974C141.025 29.5101 141.959 29.4111 142.597 29.1051C143.54 28.6741 143.828 27.7221 143.828 26.7871Z" fill="#121122"/>
<path d="M126.919 26.0512C127.234 27.3542 127.395 28.7192 127.395 30.1482C127.395 31.5312 127.261 32.8342 126.982 34.0472C126.722 35.2332 126.281 36.2662 125.688 37.1652C125.113 38.0092 124.35 38.6832 123.379 39.1862C122.445 39.6712 121.241 39.9412 119.732 39.9412H113.919V46.4182L107.153 46.9222V20.3459H110.073L112.131 23.14L112.85 22.0888C113.865 20.5974 115.823 19.708 119.094 19.708C120.693 19.708 121.978 19.9955 122.984 20.5255C124.035 21.0826 124.853 21.8103 125.473 22.7357L125.482 22.7447L125.491 22.7537C126.146 23.6701 126.623 24.7572 126.91 26.0332L126.919 26.0512ZM119.983 33.4092V24.1373H117.764C117.117 24.1373 116.587 24.1642 116.156 24.2181C115.581 24.281 115.087 24.5326 114.673 24.901C114.152 25.3412 113.937 25.9611 113.91 26.6082V26.6262V36.1312H116.129C117.18 36.1312 118.114 36.0322 118.752 35.7272C119.696 35.2962 119.983 34.3432 119.983 33.4092Z" fill="#121122"/>
<path d="M98.9048 15L105.356 39.932H98.2048L97.2068 35.691H88.7258L87.7558 39.932H80.6128L87.0638 15H98.9048ZM96.0568 30.678L93.9458 21.3969H92.0498L89.8848 30.678H96.0568Z" fill="#121122"/>
</g>
<defs>
<linearGradient id="paint0_linear_1418_2288" x1="5.0001" y1="43.9999" x2="66.9061" y2="24.6984" gradientUnits="userSpaceOnUse">
<stop stop-color="#07D5D8"/>
<stop offset="0.6369" stop-color="#6E6EFF"/>
<stop offset="1" stop-color="#6E35FF"/>
</linearGradient>
<linearGradient id="paint1_linear_1418_2288" x1="56.9997" y1="29.9997" x2="14.4996" y2="31.9997" gradientUnits="userSpaceOnUse">
<stop stop-color="#07D5D8"/>
<stop offset="0.6369" stop-color="#6E6EFF"/>
<stop offset="1" stop-color="#6E35FF"/>
</linearGradient>
<linearGradient id="paint2_linear_1418_2288" x1="64.4999" y1="19.5" x2="4.09909" y2="37.3361" gradientUnits="userSpaceOnUse">
<stop stop-color="#07D5D8"/>
<stop offset="0.6369" stop-color="#6E6EFF"/>
<stop offset="1" stop-color="#6E35FF"/>
</linearGradient>
<linearGradient id="paint3_linear_1418_2288" x1="45.9997" y1="37.0002" x2="26.5832" y2="25.8548" gradientUnits="userSpaceOnUse">
<stop stop-color="#07D5D8"/>
<stop offset="0.6369" stop-color="#6E6EFF"/>
<stop offset="1" stop-color="#6E35FF"/>
</linearGradient>
<linearGradient id="paint4_linear_1418_2288" x1="13.9999" y1="36.5004" x2="55.9959" y2="33.4474" gradientUnits="userSpaceOnUse">
<stop stop-color="#07D5D8"/>
<stop offset="0.6369" stop-color="#6E6EFF"/>
<stop offset="1" stop-color="#6E35FF"/>
</linearGradient>
<linearGradient id="paint5_linear_1418_2288" x1="32.4998" y1="27.9999" x2="37.4518" y2="36.5279" gradientUnits="userSpaceOnUse">
<stop stop-color="#07D5D8"/>
<stop offset="0.6369" stop-color="#6E6EFF"/>
<stop offset="1" stop-color="#6E35FF"/>
</linearGradient>
<linearGradient id="paint6_linear_1418_2288" x1="38.4997" y1="34.9997" x2="34.0362" y2="27.4777" gradientUnits="userSpaceOnUse">
<stop stop-color="#07D5D8"/>
<stop offset="0.6369" stop-color="#6E6EFF"/>
<stop offset="1" stop-color="#6E35FF"/>
</linearGradient>
<linearGradient id="paint7_linear_1418_2288" x1="24.5001" y1="28.0001" x2="44.4401" y2="38.6121" gradientUnits="userSpaceOnUse">
<stop stop-color="#07D5D8"/>
<stop offset="0.6369" stop-color="#6E6EFF"/>
<stop offset="1" stop-color="#6E35FF"/>
</linearGradient>
<clipPath id="clip0_1418_2288">
<rect width="239" height="63" fill="white"/>
</clipPath>
</defs>
</svg>
